<mxfile host="app.diagrams.net" modified="2024-01-21T16:43:06.951Z" agent="Mozilla/5.0 (Windows NT 10.0; Win64; x64) AppleWebKit/537.36 (KHTML, like Gecko) Chrome/120.0.0.0 Safari/537.36" version="22.1.21" etag="R9P_zMM6rDiGCNe1djq_" type="github">
  <diagram name="Page-1" id="-70jB4lSzHYllmmyT__K">
    <mxGraphModel>
      <root>
        <mxCell id="0" />
        <mxCell id="1" parent="0" />
      </root>
    </mxGraphModel>
  </diagram>
</mxfile>
